<svg width="32" height="30" viewBox="0 0 32 30" fill="none" xmlns="http://www.w3.org/2000/svg">
<path fill-rule="evenodd" clip-rule="evenodd" d="M22.7785 22.7768C19.4167 26.139 14.4388 26.8654 10.3651 24.9814C9.76368 24.7393 9.27063 24.5436 8.80191 24.5436C7.49634 24.5513 5.87128 25.8173 5.0267 24.9737C4.18211 24.129 5.44899 22.5027 5.44899 21.1892C5.44899 20.7204 5.26106 20.2362 5.01896 19.6336C3.13411 15.5606 3.86152 10.581 7.22328 7.21993C11.5148 2.92688 18.487 2.92688 22.7785 7.21882C27.0777 11.5185 27.07 18.4849 22.7785 22.7768Z" stroke="#8FA4B2" stroke-width="1.5" stroke-linecap="round" stroke-linejoin="round"/>
<path opacity="0.4" d="M19.8002 15.3912H19.8092" stroke="#8FA4B2" stroke-width="2" stroke-linecap="round" stroke-linejoin="round"/>
<path opacity="0.4" d="M14.789 15.3912H14.798" stroke="#8FA4B2" stroke-width="2" stroke-linecap="round" stroke-linejoin="round"/>
<path opacity="0.4" d="M9.77773 15.3912H9.78673" stroke="#8FA4B2" stroke-width="2" stroke-linecap="round" stroke-linejoin="round"/>
<rect x="12.5" y="0.5" width="19" height="13" rx="6.5" fill="#F23061"/>
<path d="M17.1102 10V9.451L19.3962 7.435C19.8882 7.003 20.2302 6.643 20.4222 6.355C20.6142 6.067 20.7102 5.767 20.7102 5.455C20.7102 5.095 20.5872 4.804 20.3412 4.582C20.0952 4.36 19.7952 4.249 19.4412 4.249C19.0992 4.249 18.7962 4.336 18.5322 4.51C18.2742 4.684 18.0132 4.957 17.7492 5.329L17.2272 4.951C17.5332 4.495 17.8572 4.159 18.1992 3.943C18.5412 3.721 18.9732 3.61 19.4952 3.61C20.0592 3.61 20.5242 3.781 20.8902 4.123C21.2622 4.459 21.4482 4.888 21.4482 5.41C21.4482 5.842 21.3312 6.226 21.0972 6.562C20.8632 6.898 20.4492 7.33 19.8552 7.858L18.1722 9.352H21.5112V10H17.1102ZM23.1934 10L26.0374 4.348H22.5724V3.7H26.8474V4.231L23.9854 10H23.1934Z" fill="white"/>
<rect x="12.5" y="0.5" width="19" height="13" rx="6.5" stroke="white"/>
</svg>
