<svg width="30" height="30" viewBox="0 0 30 30" fill="none" xmlns="http://www.w3.org/2000/svg">
<path opacity="0.4" d="M22.3599 13.6209C24.1036 13.3759 25.4461 11.8809 25.4499 10.0697C25.4499 8.28466 24.1486 6.80466 22.4424 6.52466" stroke="#1DBF53" stroke-width="1.5" stroke-linecap="round" stroke-linejoin="round"/>
<path d="M24.6606 17.8129C26.3494 18.0654 27.5281 18.6566 27.5281 19.8754C27.5281 20.7141 26.9731 21.2591 26.0756 21.6016" stroke="#1DBF53" stroke-width="1.5" stroke-linecap="round" stroke-linejoin="round"/>
<path fill-rule="evenodd" clip-rule="evenodd" d="M14.8584 18.3297C10.8409 18.3297 7.40967 18.9385 7.40967 21.3697C7.40967 23.7997 10.8197 24.426 14.8584 24.426C18.8759 24.426 22.3059 23.8235 22.3059 21.391C22.3059 18.9585 18.8972 18.3297 14.8584 18.3297Z" stroke="#1DBF53" stroke-width="1.5" stroke-linecap="round" stroke-linejoin="round"/>
<path opacity="0.4" fill-rule="evenodd" clip-rule="evenodd" d="M14.8583 14.8599C17.4945 14.8599 19.632 12.7236 19.632 10.0861C19.632 7.44988 17.4945 5.31238 14.8583 5.31238C12.222 5.31238 10.0845 7.44988 10.0845 10.0861C10.0745 12.7136 12.1958 14.8511 14.8233 14.8599H14.8583Z" stroke="#1DBF53" stroke-width="1.5" stroke-linecap="round" stroke-linejoin="round"/>
<path opacity="0.4" d="M7.35611 13.6209C5.61111 13.3759 4.26986 11.8809 4.26611 10.0697C4.26611 8.28466 5.56736 6.80466 7.27361 6.52466" stroke="#1DBF53" stroke-width="1.5" stroke-linecap="round" stroke-linejoin="round"/>
<path d="M5.055 17.8129C3.36625 18.0654 2.1875 18.6566 2.1875 19.8754C2.1875 20.7141 2.7425 21.2591 3.64 21.6016" stroke="#1DBF53" stroke-width="1.5" stroke-linecap="round" stroke-linejoin="round"/>
</svg>
