<svg width="41" height="40" viewBox="0 0 41 40" fill="none" xmlns="http://www.w3.org/2000/svg">
<rect x="0.5" width="40" height="40" rx="20" fill="#1DBF53"/>
<path opacity="0.4" d="M26.8877 18.8967C28.2827 18.7007 29.3567 17.5047 29.3597 16.0557C29.3597 14.6277 28.3187 13.4437 26.9537 13.2197" stroke="white" stroke-width="2" stroke-linecap="round" stroke-linejoin="round"/>
<path d="M28.7285 22.2502C30.0795 22.4522 31.0225 22.9252 31.0225 23.9002C31.0225 24.5712 30.5785 25.0072 29.8605 25.2812" stroke="white" stroke-width="2" stroke-linecap="round" stroke-linejoin="round"/>
<path fill-rule="evenodd" clip-rule="evenodd" d="M20.8867 22.6638C17.6727 22.6638 14.9277 23.1508 14.9277 25.0958C14.9277 27.0398 17.6557 27.5408 20.8867 27.5408C24.1007 27.5408 26.8447 27.0588 26.8447 25.1128C26.8447 23.1668 24.1177 22.6638 20.8867 22.6638Z" stroke="white" stroke-width="2" stroke-linecap="round" stroke-linejoin="round"/>
<path opacity="0.4" fill-rule="evenodd" clip-rule="evenodd" d="M20.8869 19.8879C22.9959 19.8879 24.7059 18.1789 24.7059 16.0689C24.7059 13.9599 22.9959 12.2499 20.8869 12.2499C18.7779 12.2499 17.0679 13.9599 17.0679 16.0689C17.0599 18.1709 18.7569 19.8809 20.8589 19.8879H20.8869Z" stroke="white" stroke-width="2" stroke-linecap="round" stroke-linejoin="round"/>
<path opacity="0.4" d="M14.8848 18.8967C13.4888 18.7007 12.4158 17.5047 12.4128 16.0557C12.4128 14.6277 13.4538 13.4437 14.8188 13.2197" stroke="white" stroke-width="2" stroke-linecap="round" stroke-linejoin="round"/>
<path d="M13.044 22.2502C11.693 22.4522 10.75 22.9252 10.75 23.9002C10.75 24.5712 11.194 25.0072 11.912 25.2812" stroke="white" stroke-width="2" stroke-linecap="round" stroke-linejoin="round"/>
</svg>
