<svg width="30" height="30" viewBox="0 0 30 30" fill="none" xmlns="http://www.w3.org/2000/svg">
<path d="M12.1572 23.7714V20.7047C12.1572 19.9246 12.7931 19.2908 13.581 19.2856H16.4671C17.2587 19.2856 17.9005 19.9209 17.9005 20.7047V20.7047V23.7809C17.9003 24.4432 18.4343 24.9845 19.103 25H21.0271C22.9451 25 24.5 23.4607 24.5 21.5618V21.5618V12.8378C24.4898 12.0908 24.1355 11.3893 23.538 10.933L16.9577 5.6853C15.8049 4.77157 14.1662 4.77157 13.0134 5.6853L6.46203 10.9426C5.86226 11.397 5.50739 12.0997 5.5 12.8474V21.5618C5.5 23.4607 7.05488 25 8.97291 25H10.897C11.5824 25 12.138 24.4499 12.138 23.7714V23.7714" stroke="#8FA4B2" stroke-width="1.5" stroke-linecap="round" stroke-linejoin="round"/>
<path opacity="0.4" d="M11 14H19" stroke="#8FA4B2" stroke-width="1.5" stroke-linecap="round"/>
</svg>
