<svg width="15" height="15" viewBox="0 0 15 15" fill="none" xmlns="http://www.w3.org/2000/svg">
<path opacity="0.4" d="M1.75244 9.67322C1.75244 9.67322 1.84119 10.7595 1.86182 11.102C1.88932 11.5613 2.06682 12.0745 2.36307 12.4307C2.78119 12.9357 3.27369 13.1138 3.93119 13.1151C4.70432 13.1163 10.3262 13.1163 11.0993 13.1151C11.7568 13.1138 12.2493 12.9357 12.6674 12.4307C12.9637 12.0745 13.1412 11.5613 13.1693 11.102C13.1893 10.7595 13.2781 9.67322 13.2781 9.67322" stroke="#8962D9" stroke-linecap="round" stroke-linejoin="round"/>
<path d="M5.31006 3.33099V3.09912C5.31006 2.33662 5.92756 1.71912 6.69006 1.71912H8.30381C9.06568 1.71912 9.68381 2.33662 9.68381 3.09912L9.68443 3.33099" stroke="#8962D9" stroke-linecap="round" stroke-linejoin="round"/>
<path d="M7.49707 10.424V9.61523" stroke="#8962D9" stroke-linecap="round" stroke-linejoin="round"/>
<path fill-rule="evenodd" clip-rule="evenodd" d="M1.71875 5.24328V7.41016C2.9175 8.20078 4.35375 8.75453 5.93 8.97391C6.11875 8.28578 6.73937 7.78141 7.49375 7.78141C8.23625 7.78141 8.86937 8.28578 9.04562 8.98016C10.6281 8.76078 12.07 8.20703 13.275 7.41016V5.24328C13.275 4.18453 12.4231 3.33203 11.3644 3.33203H3.63562C2.57687 3.33203 1.71875 4.18453 1.71875 5.24328Z" stroke="#8962D9" stroke-linecap="round" stroke-linejoin="round"/>
</svg>
