<svg width="28" height="28" viewBox="0 0 28 28" fill="none" xmlns="http://www.w3.org/2000/svg">
<rect width="28" height="28" rx="14" fill="white" fill-opacity="0.15"/>
<path fill-rule="evenodd" clip-rule="evenodd" d="M12.2502 16.3334C11.2837 16.3334 10.5002 17.1169 10.5002 18.0834C10.5002 18.4056 10.7613 18.6667 11.0835 18.6667H16.9168C17.239 18.6667 17.5002 18.4056 17.5002 18.0834C17.5002 17.1169 16.7167 16.3334 15.7502 16.3334H12.2502ZM9.3335 18.0834C9.3335 16.4726 10.6393 15.1667 12.2502 15.1667H15.7502C17.361 15.1667 18.6668 16.4726 18.6668 18.0834C18.6668 19.0499 17.8833 19.8334 16.9168 19.8334H11.0835C10.117 19.8334 9.3335 19.0499 9.3335 18.0834Z" fill="white"/>
<path fill-rule="evenodd" clip-rule="evenodd" d="M14.0002 9.33341C13.0337 9.33341 12.2502 10.1169 12.2502 11.0834C12.2502 12.0499 13.0337 12.8334 14.0002 12.8334C14.9667 12.8334 15.7502 12.0499 15.7502 11.0834C15.7502 10.1169 14.9667 9.33341 14.0002 9.33341ZM11.0835 11.0834C11.0835 9.47258 12.3893 8.16675 14.0002 8.16675C15.611 8.16675 16.9168 9.47258 16.9168 11.0834C16.9168 12.6942 15.611 14.0001 14.0002 14.0001C12.3893 14.0001 11.0835 12.6942 11.0835 11.0834Z" fill="white"/>
</svg>
